<mxfile host="app.diagrams.net" agent="Mozilla/5.0 (Windows NT 10.0; Win64; x64) AppleWebKit/537.36 (KHTML, like Gecko) Chrome/133.0.0.0 Safari/537.36 OPR/118.0.0.0" version="27.0.8">
  <diagram name="Página-1" id="0avzY1TykmXjEArX37N6">
    <mxGraphModel dx="883" dy="1533" grid="1" gridSize="10" guides="1" tooltips="1" connect="1" arrows="1" fold="1" page="1" pageScale="1" pageWidth="827" pageHeight="1169" math="0" shadow="0">
      <root>
        <mxCell id="0" />
        <mxCell id="1" parent="0" />
        <mxCell id="tffau5cR8famsbwCCSa3-1" value="Almacén SF" style="shape=cylinder3;whiteSpace=wrap;html=1;boundedLbl=1;backgroundOutline=1;size=15;" vertex="1" parent="1">
          <mxGeometry x="130" y="40" width="60" height="80" as="geometry" />
        </mxCell>
        <mxCell id="tffau5cR8famsbwCCSa3-2" value="Almacén Consumo" style="shape=cylinder3;whiteSpace=wrap;html=1;boundedLbl=1;backgroundOutline=1;size=15;" vertex="1" parent="1">
          <mxGeometry x="440" y="40" width="60" height="80" as="geometry" />
        </mxCell>
        <mxCell id="tffau5cR8famsbwCCSa3-3" value="" style="endArrow=classic;html=1;rounded=0;entryX=0;entryY=0;entryDx=0;entryDy=27.5;entryPerimeter=0;exitX=1;exitY=0;exitDx=0;exitDy=27.5;exitPerimeter=0;" edge="1" parent="1" source="tffau5cR8famsbwCCSa3-1" target="tffau5cR8famsbwCCSa3-2">
          <mxGeometry width="50" height="50" relative="1" as="geometry">
            <mxPoint x="170" y="130" as="sourcePoint" />
            <mxPoint x="220" y="80" as="targetPoint" />
          </mxGeometry>
        </mxCell>
        <mxCell id="tffau5cR8famsbwCCSa3-4" value="0104 lote1 30/12/2050 50&lt;div&gt;0103 lote2 30/12/2050&amp;nbsp;20&lt;/div&gt;" style="rounded=0;whiteSpace=wrap;html=1;" vertex="1" parent="1">
          <mxGeometry x="230" y="-10" width="160" height="60" as="geometry" />
        </mxCell>
        <mxCell id="tffau5cR8famsbwCCSa3-5" value="0104 lote1 30/12/2050 50&lt;div&gt;0103 lote2 30/12/2050&amp;nbsp;20&lt;/div&gt;" style="rounded=0;whiteSpace=wrap;html=1;" vertex="1" parent="1">
          <mxGeometry x="240" y="120" width="160" height="60" as="geometry" />
        </mxCell>
        <mxCell id="tffau5cR8famsbwCCSa3-6" value="" style="endArrow=classic;html=1;rounded=0;entryX=1;entryY=1;entryDx=0;entryDy=-15;entryPerimeter=0;exitX=0;exitY=1;exitDx=0;exitDy=-15;exitPerimeter=0;" edge="1" parent="1" source="tffau5cR8famsbwCCSa3-2" target="tffau5cR8famsbwCCSa3-1">
          <mxGeometry width="50" height="50" relative="1" as="geometry">
            <mxPoint x="210" y="160" as="sourcePoint" />
            <mxPoint x="260" y="110" as="targetPoint" />
          </mxGeometry>
        </mxCell>
        <mxCell id="tffau5cR8famsbwCCSa3-7" value="de la clave 0104 Entraron 30.&lt;div&gt;&lt;br&gt;&lt;/div&gt;&lt;div&gt;Se devuelven 20&lt;/div&gt;&lt;div&gt;&lt;br&gt;&lt;/div&gt;&lt;div&gt;de la clave 0103 entraron 15&lt;/div&gt;&lt;div&gt;Se devuelven 5&lt;/div&gt;" style="shape=step;perimeter=stepPerimeter;whiteSpace=wrap;html=1;fixedSize=1;" vertex="1" parent="1">
          <mxGeometry x="510" y="10" width="260" height="120" as="geometry" />
        </mxCell>
      </root>
    </mxGraphModel>
  </diagram>
</mxfile>
